<svg xmlns="http://www.w3.org/2000/svg" width="1250.128" height="475.058" viewBox="0 0 1250.128 475.058">
  <g id="Group_145" data-name="Group 145" transform="translate(-421 -257)">
    <g id="Group_144" data-name="Group 144" transform="translate(421 257)" opacity="0.1">
      <path id="Path_178" data-name="Path 178" d="M-990.709,1613.747c-214.208-200.477-432.207-82.9-432.207-82.9l-80.271,40.261a389.475,389.475,0,0,1,85.781-11.966c82.088-6.094,193.592,12.574,304.167,116.061,172.667,161.6,309.606,227.7,403.472,229a204.384,204.384,0,0,0,56.414-18.749l86.573-43.424C-660.689,1850.969-805.015,1787.537-990.709,1613.747Z" transform="translate(1654.303 -1458.555)" fill="#4981f2"/>
      <path id="Path_179" data-name="Path 179" d="M-1127.18,1681.211c-214.208-200.476-432.208-82.9-432.208-82.9l-68.857,34.538c27.524-13.389,229.575-101.564,428.928,84.542,269.289,251.4,402.157,201.038,496.066,192.1h0C-797.159,1918.432-941.485,1855-1127.18,1681.211Z" transform="translate(1628.245 -1444.498)" fill="#4981f2"/>
      <path id="Path_180" data-name="Path 180" d="M-788.789,1598.629v0l-.082-.074c-1.518-1.271-3.061-2.61-4.585-3.9-33.959-28.153-256.838-198.248-575.226-98.511,81.809-20.935,231.29-30.476,379.022,107.785,141.527,132.454,259.522,202.191,350.261,225.425,9.72,2.113,60.87,11.07,120.55-18.864l86.649-43.469C-514.417,1774.848-635.34,1727.231-788.789,1598.629Z" transform="translate(1682.329 -1465.113)" fill="#4981f2"/>
    </g>
  </g>
</svg>
