<svg xmlns="http://www.w3.org/2000/svg" xmlns:xlink="http://www.w3.org/1999/xlink" width="214.02" height="145.117" viewBox="0 0 214.02 145.117">
  <defs>
    <linearGradient id="linear-gradient" y1="0.5" x2="1" y2="0.5" gradientUnits="objectBoundingBox">
      <stop offset="0" stop-color="#4981f2"/>
      <stop offset="0.196" stop-color="#437bef"/>
      <stop offset="0.449" stop-color="#356be9"/>
      <stop offset="0.731" stop-color="#1d50de"/>
      <stop offset="1" stop-color="#0031d1"/>
    </linearGradient>
  </defs>
  <g id="Group_141" data-name="Group 141" transform="translate(-249.887 -175.999)">
    <g id="Group_141-2" data-name="Group 141" transform="translate(253.178 309.433)">
      <path id="Path_156" data-name="Path 156" d="M253.8,291a3.647,3.647,0,0,1-1.063-.361c-.24-.142-.335-.285-.285-.427a1.421,1.421,0,0,1,.4-.525c.21-.2.366-.3.464-.3a1.31,1.31,0,0,1,.414.13,4.373,4.373,0,0,0,1.977.444,3.6,3.6,0,0,0,1.825-.525,3.092,3.092,0,0,0,1.332-1.74q.412-1.18-.046-1.673a2.216,2.216,0,0,0-1.656-.493h-.542a.194.194,0,0,1-.206-.115.619.619,0,0,1,.05-.378l.063-.181a.94.94,0,0,1,.214-.377.4.4,0,0,1,.286-.115h.476a2.72,2.72,0,0,0,1.4-.353,3.5,3.5,0,0,0,1.54-1.8,1.269,1.269,0,0,0-.061-1.091q-.273-.484-1.34-.484a4.94,4.94,0,0,0-1.184.123,8.583,8.583,0,0,0-.967.3,1.711,1.711,0,0,1-.4.115c-.088,0-.161-.108-.221-.328a.9.9,0,0,1-.022-.525c.08-.23.5-.432,1.246-.607a8.97,8.97,0,0,1,2-.263,2.727,2.727,0,0,1,2.152.739,2.1,2.1,0,0,1,.144,2.165,3.227,3.227,0,0,1-.974,1.4,4.591,4.591,0,0,1-1.51.869l-.023.066a1.651,1.651,0,0,1,1.087,1.017,2.753,2.753,0,0,1-.077,2,4.8,4.8,0,0,1-1.234,1.952,5.231,5.231,0,0,1-1.78,1.125,5.361,5.361,0,0,1-1.847.352A7.985,7.985,0,0,1,253.8,291Z" transform="translate(-252.439 -279.469)" fill="#4981f2"/>
      <path id="Path_157" data-name="Path 157" d="M266.5,290.916a.452.452,0,0,1,.018-.378l3.679-10.5a.766.766,0,0,1,.246-.377.683.683,0,0,1,.418-.115h3.316a3.55,3.55,0,0,1,3.2,1.37q.907,1.37-.146,4.373a8.856,8.856,0,0,1-2.921,4.381,6.883,6.883,0,0,1-4.16,1.362h-3.314C266.659,291.031,266.547,290.992,266.5,290.916Zm3.973-1.132a4.874,4.874,0,0,0,3.054-1.083,7.183,7.183,0,0,0,2.214-3.412q.81-2.314.175-3.4a2.426,2.426,0,0,0-2.293-1.091h-2.246l-3.15,8.991Z" transform="translate(-248.378 -279.447)" fill="#4981f2"/>
      <path id="Path_158" data-name="Path 158" d="M292.4,290.922a2.479,2.479,0,0,1-1.069-.557c-.153-.153-.21-.29-.168-.411a1.757,1.757,0,0,1,.411-.542q.342-.344.473-.344a.769.769,0,0,1,.288.165,4.518,4.518,0,0,0,.925.476,3.75,3.75,0,0,0,1.317.2,3.022,3.022,0,0,0,1.737-.533,2.763,2.763,0,0,0,1.091-1.4,1.333,1.333,0,0,0,.026-1.01,1.487,1.487,0,0,0-.571-.64,11.016,11.016,0,0,0-1.15-.583,8.423,8.423,0,0,1-1.268-.689,1.635,1.635,0,0,1-.627-.926,2.733,2.733,0,0,1,.173-1.617,4.1,4.1,0,0,1,1-1.575,4.848,4.848,0,0,1,1.656-1.074,5.439,5.439,0,0,1,2.047-.387,5.047,5.047,0,0,1,1.192.156,2.115,2.115,0,0,1,.921.419c.172.132.232.273.178.426a1.792,1.792,0,0,1-.389.526q-.325.344-.44.344a.407.407,0,0,1-.209-.083,1.547,1.547,0,0,1-.165-.115,2.847,2.847,0,0,0-1.557-.427,3.06,3.06,0,0,0-1.707.493,2.62,2.62,0,0,0-1.06,1.362,1.177,1.177,0,0,0-.028.9,1.144,1.144,0,0,0,.475.517q.31.172,1.1.533a8.107,8.107,0,0,1,1.352.73,1.865,1.865,0,0,1,.7,1.017,2.792,2.792,0,0,1-.16,1.7,4.518,4.518,0,0,1-1.8,2.33,5.213,5.213,0,0,1-2.956.852A5.982,5.982,0,0,1,292.4,290.922Z" transform="translate(-241.229 -279.469)" fill="#4981f2"/>
      <path id="Path_159" data-name="Path 159" d="M306.477,290.7l3.473-9.909H306.8a.194.194,0,0,1-.206-.115.629.629,0,0,1,.05-.378l.093-.263a.939.939,0,0,1,.213-.377.406.406,0,0,1,.288-.115h7.7c.12,0,.191.037.214.115a.706.706,0,0,1-.058.377l-.093.263a1.013,1.013,0,0,1-.206.378.4.4,0,0,1-.294.115h-3.1l-3.472,9.909q-.128.362-.783.361h-.132C306.568,291.063,306.393,290.943,306.477,290.7Z" transform="translate(-236.796 -279.447)" fill="#4981f2"/>
      <path id="Path_160" data-name="Path 160" d="M318.424,290.7l3.736-10.665a.767.767,0,0,1,.248-.377.681.681,0,0,1,.418-.115h2.756a4.024,4.024,0,0,1,2.717.7q.749.7.219,2.208a4.245,4.245,0,0,1-1.094,1.714,4.857,4.857,0,0,1-1.764,1.059l-.023.066a.957.957,0,0,1,.571.64,5.541,5.541,0,0,1,.187,1.411l.147,3.233a.793.793,0,0,1-.031.229q-.093.261-.781.262h-.164a.937.937,0,0,1-.4-.073c-.1-.049-.157-.112-.164-.188l-.12-3.216a1.636,1.636,0,0,0-.457-1.272,2.324,2.324,0,0,0-1.425-.337h-1.477l-1.656,4.725q-.126.362-.783.361h-.132Q318.3,291.063,318.424,290.7Zm5.7-5.972a2.663,2.663,0,0,0,1.157-.279,3.482,3.482,0,0,0,1.021-.739,2.765,2.765,0,0,0,.629-1,1.4,1.4,0,0,0-.084-1.443,1.882,1.882,0,0,0-1.458-.476H323.34l-1.38,3.937Z" transform="translate(-233.336 -279.447)" fill="#4981f2"/>
      <path id="Path_161" data-name="Path 161" d="M332.9,290.916a.451.451,0,0,1,.017-.378l3.679-10.5a.776.776,0,0,1,.248-.377.68.68,0,0,1,.418-.115h5.726c.12,0,.192.037.214.115a.693.693,0,0,1-.058.377l-.092.263a1.031,1.031,0,0,1-.206.378.4.4,0,0,1-.3.115h-4.774l-1.31,3.741h4.281c.12,0,.192.039.214.115a.694.694,0,0,1-.058.377l-.093.263a1.013,1.013,0,0,1-.205.378.4.4,0,0,1-.3.115h-4.281l-1.4,4h4.791c.12,0,.192.039.214.115a.712.712,0,0,1-.058.378l-.093.262a1.022,1.022,0,0,1-.205.378.4.4,0,0,1-.3.115h-5.743C333.06,291.031,332.947,290.992,332.9,290.916Z" transform="translate(-229.148 -279.447)" fill="#4981f2"/>
      <path id="Path_162" data-name="Path 162" d="M345.384,290.792a1.073,1.073,0,0,1,.13-.23l7.665-10.78a.875.875,0,0,1,.748-.262h.476c.395,0,.582.086.565.262l.106,10.8a.5.5,0,0,1-.026.213q-.1.279-.8.279h-.13c-.384,0-.571-.088-.565-.262l-.025-2.691H348.7l-1.878,2.691a.856.856,0,0,1-.749.262h-.081Q345.286,291.071,345.384,290.792Zm8.133-3.922-.009-4.889a7.8,7.8,0,0,1,.137-.952h-.032a9.272,9.272,0,0,1-.58.952L349.6,286.87Z" transform="translate(-225.526 -279.454)" fill="#4981f2"/>
      <path id="Path_163" data-name="Path 163" d="M366.734,287.625,365.6,282.54c-.041-.165-.085-.411-.135-.739l-.071.015c-.048.2-.142.5-.284.9l-2.8,7.99q-.126.362-.783.361h-.115q-.656,0-.529-.361l3.794-10.829q.126-.36.783-.36h.591c.349,0,.546.1.585.294l1.215,5.383a3.156,3.156,0,0,1,.064,1.033,10.121,10.121,0,0,1,.889-1.083l4.886-5.332a1.021,1.021,0,0,1,.793-.294h.542c.437,0,.615.12.53.36l-3.794,10.829c-.084.241-.346.361-.783.361h-.115c-.438,0-.614-.12-.53-.361l2.765-7.892q.213-.605.35-.9l-.061-.017c-.279.329-.5.574-.651.739l-4.619,4.987a.569.569,0,0,1-.436.214h-.656A.252.252,0,0,1,366.734,287.625Z" transform="translate(-221.041 -279.454)" fill="#4981f2"/>
      <path id="Path_164" data-name="Path 164" d="M378.374,290.71l3.794-10.829q.126-.36.783-.36h.132q.656,0,.53.36l-3.8,10.829q-.126.362-.783.361H378.9Q378.247,291.071,378.374,290.71Z" transform="translate(-215.975 -279.454)" fill="#4981f2"/>
      <path id="Path_165" data-name="Path 165" d="M388.565,290.71l3.794-10.829q.126-.36.783-.36h.344a.954.954,0,0,1,.4.065.369.369,0,0,1,.183.246l2.427,7.777a4.811,4.811,0,0,1,.2.984l.071-.016c.066-.253.186-.624.359-1.117l2.655-7.58q.128-.36.783-.36h.115c.437,0,.615.12.53.36l-3.794,10.829c-.084.241-.346.361-.783.361H396.3c-.285,0-.45-.076-.494-.229l-2.49-7.974a4.837,4.837,0,0,1-.2-.984l-.071.016c-.067.251-.186.624-.359,1.116l-2.7,7.695c-.084.241-.346.361-.783.361h-.115Q388.438,291.071,388.565,290.71Z" transform="translate(-213.024 -279.454)" fill="#4981f2"/>
      <path id="Path_166" data-name="Path 166" d="M414.209,285.245a.448.448,0,0,1-.017.377l-1.524,4.349q-.224.64-1.344.91a11.8,11.8,0,0,1-2.729.271q-2.476,0-3.273-1.428t.215-4.315q2.081-5.939,7.4-5.94a6.473,6.473,0,0,1,1.447.156,3.18,3.18,0,0,1,1.041.4q.364.246.289.459a1.916,1.916,0,0,1-.411.591q-.331.362-.478.361a1.367,1.367,0,0,1-.347-.205,3.034,3.034,0,0,0-.776-.361,3.82,3.82,0,0,0-1.167-.156,4.883,4.883,0,0,0-3.372,1.149,7.99,7.99,0,0,0-2.076,3.4,5.669,5.669,0,0,0-.368,3.388q.381,1.255,2.415,1.255.607,0,1.21-.057a6.512,6.512,0,0,0,.983-.156l1.161-3.314h-1.92c-.11,0-.178-.039-.205-.115a.62.62,0,0,1,.05-.378l.092-.263a.955.955,0,0,1,.214-.377.406.406,0,0,1,.286-.115h2.872C414.047,285.13,414.159,285.169,414.209,285.245Z" transform="translate(-208.266 -279.469)" fill="#4981f2"/>
    </g>
    <g id="Group_142" data-name="Group 142" transform="translate(253.433 257.215)">
      <path id="Path_167" data-name="Path 167" d="M276.916,270.735h-12.7a1.166,1.166,0,0,1-.922-.431,1.2,1.2,0,0,1-.277-1.015l1.168-5.01h16.785l2.09-9.408H266.372l1.26-5.441a1.476,1.476,0,0,1,.522-.739,1.194,1.194,0,0,1,.707-.276h24.5l2.182-9.439h-28.4q-6.364,0-8.762,6.826L252.846,269.6a8.3,8.3,0,0,0,1.829,7.378,8.74,8.74,0,0,0,7.024,3.2h24.287q1.2-5.1,2.182-9.408H276.916Z" transform="translate(-252.637 -238.977)" fill="#1d1d1b"/>
      <path id="Path_168" data-name="Path 168" d="M298.63,238.977q-6.087,0-8.515,6.826l-8.424,34.369h9.714l2.766-11.343h17.486l-2.76,11.343h9.776l9.99-41.195Zm15.333,20.413H296.447l2.43-9.96a1.343,1.343,0,0,1,.476-.739,1.131,1.131,0,0,1,.691-.276h16.6Z" transform="translate(-244.223 -238.977)" fill="#1d1d1b"/>
      <path id="Path_169" data-name="Path 169" d="M336.909,254.871l-2.09,9.408H345.4l-1.292,5.441a.974.974,0,0,1-.384.738,1.127,1.127,0,0,1-.691.277H327.113a1.232,1.232,0,0,1-1.23-1.446l4.643-19.858a1.476,1.476,0,0,1,.522-.739,1.194,1.194,0,0,1,.707-.276h27.637v.092l2.244-9.53h-31.6q-6.362,0-8.762,6.826L315.708,269.6a8.3,8.3,0,0,0,1.829,7.378,8.708,8.708,0,0,0,6.993,3.2h20.2q6.4,0,8.792-6.825.46-1.845.86-3.6,2.153-9.068,3.505-14.879H336.909Z" transform="translate(-234.433 -238.977)" fill="#1d1d1b"/>
      <path id="Path_170" data-name="Path 170" d="M373.36,270.735H360.54a1.23,1.23,0,0,1-1.229-1.446l1.813-7.716h-.03l5.256-22.6H363.43a9.119,9.119,0,0,0-5.656,1.861,8.481,8.481,0,0,0-3.2,4.965L349.012,269.6a8.166,8.166,0,0,0,1.844,7.378,8.942,8.942,0,0,0,7.133,3.2h24.563q.368-1.507.707-2.951.8-3.443,1.506-6.457H373.36Z" transform="translate(-224.791 -238.977)" fill="#1d1d1b"/>
      <path id="Path_171" data-name="Path 171" d="M395.357,248.691a1.194,1.194,0,0,1,.708-.276h24.5l2.182-9.439h-28.4q-6.364,0-8.762,6.826L380.048,269.6a8.3,8.3,0,0,0,1.829,7.378,8.74,8.74,0,0,0,7.024,3.2h24.287q1.2-5.1,2.182-9.408H404.118v-.03h-12.7a1.166,1.166,0,0,1-.922-.431,1.2,1.2,0,0,1-.277-1.015l1.168-5.01h16.785l2.09-9.408H393.574l1.26-5.441A1.484,1.484,0,0,1,395.357,248.691Z" transform="translate(-215.8 -238.977)" fill="#1d1d1b"/>
    </g>
    <path id="Path_172" data-name="Path 172" d="M426.409,191.9c-2.853-3.437-12.169-4.961-12.169-4.961s-11.084-1.6-25.257-3.086c-15.347-1.607-18.081.337-23.908,2.84-2.881,1.238-9.556,4.021-10.909,4.534,14.665,11.154,31.626,22.338,46.046,19.809,2.929-1.6,10.163-5.3,12.566-6.3,10.742-4.465,20.929,4.574,20.929,4.574S429.261,195.333,426.409,191.9Z" transform="translate(30.199 2.104)"/>
    <path id="Path_173" data-name="Path 173" d="M337.881,196.493c-29.935-28.015-60.4-11.584-60.4-11.584l-11.218,5.627a54.461,54.461,0,0,1,11.988-1.673c11.471-.851,27.053,1.758,42.506,16.219,24.13,22.583,43.266,31.821,56.384,32a28.535,28.535,0,0,0,7.883-2.62l12.1-6.068C384,229.644,363.83,220.779,337.881,196.493Z" transform="translate(4.742 1.194)" fill="url(#linear-gradient)"/>
    <path id="Path_174" data-name="Path 174" d="M319.909,205.327c-29.934-28.015-60.4-11.584-60.4-11.584l-9.623,4.827c3.847-1.871,32.083-14.193,59.942,11.814,37.633,35.132,56.2,28.1,69.323,26.847h0C366.029,238.478,345.86,229.613,319.909,205.327Z" transform="translate(0 3.752)" fill="url(#linear-gradient)"/>
    <path id="Path_175" data-name="Path 175" d="M364.914,194.657h0l-.012-.009c-.213-.178-.428-.365-.641-.546-4.746-3.935-35.892-27.7-80.385-13.766,11.432-2.926,32.321-4.26,52.966,15.062,19.779,18.51,36.267,28.255,48.948,31.5a26.522,26.522,0,0,0,16.847-2.636l12.108-6.074C403.256,219.283,386.357,212.629,364.914,194.657Z" transform="translate(9.843)" fill="url(#linear-gradient)"/>
  </g>
</svg>
